HIERARCHY
ROOT mixamorig:Hips
{
	OFFSET 0.000000 99.672066 0.247052
	CHANNELS 6 Xposition Yposition Zposition Xrotation Yrotation Zrotation
	JOINT mixamorig:Spine
	{
		OFFSET 0.000001 9.923462 -1.227335
		CHANNELS 6 Xposition Yposition Zposition Xrotation Yrotation Zrotation
		JOINT mixamorig:Spine1
		{
			OFFSET -0.000139 11.645439 -1.422341
			CHANNELS 6 Xposition Yposition Zposition Xrotation Yrotation Zrotation
			JOINT mixamorig:Spine2
			{
				OFFSET 0.000091 13.360199 -1.626460
				CHANNELS 6 Xposition Yposition Zposition Xrotation Yrotation Zrotation
				JOINT mixamorig:Neck
				{
					OFFSET 0.000025 15.032501 0.792905
					CHANNELS 6 Xposition Yposition Zposition Xrotation Yrotation Zrotation
					JOINT mixamorig:Head
					{
						OFFSET 0.000002 10.321823 3.142429
						CHANNELS 6 Xposition Yposition Zposition Xrotation Yrotation Zrotation
						JOINT mixamorig:HeadTop_End
						{
							OFFSET 0.000154 18.474670 6.636399
							CHANNELS 6 Xposition Yposition Zposition Xrotation Yrotation Zrotation
							End Site
							{
								OFFSET 0.000000 14.732239 0.000000
							}
						}
						JOINT mixamorig:LeftEye
						{
							OFFSET 2.947915 7.681747 9.120731
							CHANNELS 6 Xposition Yposition Zposition Xrotation Yrotation Zrotation
							End Site
							{
								OFFSET 0.000000 14.732239 0.000000
							}
						}
						JOINT mixamorig:RightEye
						{
							OFFSET -2.944481 7.681747 9.120496
							CHANNELS 6 Xposition Yposition Zposition Xrotation Yrotation Zrotation
							End Site
							{
								OFFSET 0.000000 14.732239 0.000000
							}
						}
					}
				}
				JOINT mixamorig:LeftShoulder
				{
					OFFSET 6.105824 9.110428 0.705551
					CHANNELS 6 Xposition Yposition Zposition Xrotation Yrotation Zrotation
					JOINT mixamorig:LeftArm
					{
						OFFSET 12.655037 -0.265930 -2.600922
						CHANNELS 6 Xposition Yposition Zposition Xrotation Yrotation Zrotation
						JOINT mixamorig:LeftForeArm
						{
							OFFSET 27.404682 0.000031 0.000007
							CHANNELS 6 Xposition Yposition Zposition Xrotation Yrotation Zrotation
							JOINT mixamorig:LeftHand
							{
								OFFSET 27.614464 0.000031 0.000020
								CHANNELS 6 Xposition Yposition Zposition Xrotation Yrotation Zrotation
								JOINT mixamorig:LeftHandMiddle1
								{
									OFFSET 12.775528 0.000015 0.000021
									CHANNELS 6 Xposition Yposition Zposition Xrotation Yrotation Zrotation
									JOINT mixamorig:LeftHandMiddle2
									{
										OFFSET 3.613968 0.000000 0.000000
										CHANNELS 3 Xrotation Yrotation Zrotation
										JOINT mixamorig:LeftHandMiddle3
										{
											OFFSET 3.459763 0.000000 -0.000024
											CHANNELS 6 Xposition Yposition Zposition Xrotation Yrotation Zrotation
											JOINT mixamorig:LeftHandMiddle4
											{
												OFFSET 3.680191 0.000000 0.000033
												CHANNELS 6 Xposition Yposition Zposition Xrotation Yrotation Zrotation
												End Site
												{
													OFFSET 3.680191 0.000000 0.000000
												}
											}
										}
									}
								}
								JOINT mixamorig:LeftHandThumb1
								{
									OFFSET 3.788811 -2.166992 3.003088
									CHANNELS 6 Xposition Yposition Zposition Xrotation Yrotation Zrotation
									JOINT mixamorig:LeftHandThumb2
									{
										OFFSET 3.675446 -2.122009 2.122012
										CHANNELS 6 Xposition Yposition Zposition Xrotation Yrotation Zrotation
										JOINT mixamorig:LeftHandThumb3
										{
											OFFSET 3.394356 -1.959747 1.959793
											CHANNELS 6 Xposition Yposition Zposition Xrotation Yrotation Zrotation
											JOINT mixamorig:LeftHandThumb4
											{
												OFFSET 2.679405 -1.546951 1.546920
												CHANNELS 6 Xposition Yposition Zposition Xrotation Yrotation Zrotation
												End Site
												{
													OFFSET 3.459076 0.000000 0.000000
												}
											}
										}
									}
								}
								JOINT mixamorig:LeftHandIndex1
								{
									OFFSET 12.266617 -0.231659 2.822058
									CHANNELS 6 Xposition Yposition Zposition Xrotation Yrotation Zrotation
									JOINT mixamorig:LeftHandIndex2
									{
										OFFSET 3.891968 0.000000 0.000039
										CHANNELS 6 Xposition Yposition Zposition Xrotation Yrotation Zrotation
										JOINT mixamorig:LeftHandIndex3
										{
											OFFSET 3.415161 0.000000 -0.000009
											CHANNELS 6 Xposition Yposition Zposition Xrotation Yrotation Zrotation
											JOINT mixamorig:LeftHandIndex4
											{
												OFFSET 3.077988 0.000000 -0.000009
												CHANNELS 6 Xposition Yposition Zposition Xrotation Yrotation Zrotation
												End Site
												{
													OFFSET 3.077988 0.000000 0.000000
												}
											}
										}
									}
								}
								JOINT mixamorig:LeftHandRing1
								{
									OFFSET 12.147011 0.009903 -2.216630
									CHANNELS 6 Xposition Yposition Zposition Xrotation Yrotation Zrotation
									JOINT mixamorig:LeftHandRing2
									{
										OFFSET 3.601189 0.000000 0.000035
										CHANNELS 6 Xposition Yposition Zposition Xrotation Yrotation Zrotation
										JOINT mixamorig:LeftHandRing3
										{
											OFFSET 3.307312 0.000000 -0.000021
											CHANNELS 6 Xposition Yposition Zposition Xrotation Yrotation Zrotation
											JOINT mixamorig:LeftHandRing4
											{
												OFFSET 3.660110 0.000000 0.000000
												CHANNELS 3 Xrotation Yrotation Zrotation
												End Site
												{
													OFFSET 3.660118 0.000000 0.000000
												}
											}
										}
									}
								}
								JOINT mixamorig:LeftHandPinky1
								{
									OFFSET 10.908195 -0.226364 -4.725818
									CHANNELS 6 Xposition Yposition Zposition Xrotation Yrotation Zrotation
									JOINT mixamorig:LeftHandPinky2
									{
										OFFSET 4.136658 0.000000 0.000027
										CHANNELS 6 Xposition Yposition Zposition Xrotation Yrotation Zrotation
										JOINT mixamorig:LeftHandPinky3
										{
											OFFSET 2.594833 0.000000 -0.000035
											CHANNELS 6 Xposition Yposition Zposition Xrotation Yrotation Zrotation
											JOINT mixamorig:LeftHandPinky4
											{
												OFFSET 2.923866 0.000000 0.000019
												CHANNELS 6 Xposition Yposition Zposition Xrotation Yrotation Zrotation
												End Site
												{
													OFFSET 2.923874 0.000000 0.000000
												}
											}
										}
									}
								}
							}
						}
					}
				}
				JOINT mixamorig:RightShoulder
				{
					OFFSET -6.105696 9.110519 0.705564
					CHANNELS 6 Xposition Yposition Zposition Xrotation Yrotation Zrotation
					JOINT mixamorig:RightArm
					{
						OFFSET -12.655039 -0.266022 -2.600896
						CHANNELS 6 Xposition Yposition Zposition Xrotation Yrotation Zrotation
						JOINT mixamorig:RightForeArm
						{
							OFFSET -27.404676 0.000000 0.000000
							CHANNELS 3 Xrotation Yrotation Zrotation
							JOINT mixamorig:RightHand
							{
								OFFSET -27.614471 0.000046 0.000023
								CHANNELS 6 Xposition Yposition Zposition Xrotation Yrotation Zrotation
								JOINT mixamorig:RightHandMiddle1
								{
									OFFSET -12.775528 0.000015 0.000018
									CHANNELS 6 Xposition Yposition Zposition Xrotation Yrotation Zrotation
									JOINT mixamorig:RightHandMiddle2
									{
										OFFSET -3.613968 0.000000 0.000000
										CHANNELS 3 Xrotation Yrotation Zrotation
										JOINT mixamorig:RightHandMiddle3
										{
											OFFSET -3.459763 0.000000 -0.000023
											CHANNELS 6 Xposition Yposition Zposition Xrotation Yrotation Zrotation
											JOINT mixamorig:RightHandMiddle4
											{
												OFFSET -3.680191 0.000000 0.000032
												CHANNELS 6 Xposition Yposition Zposition Xrotation Yrotation Zrotation
												End Site
												{
													OFFSET -3.680191 0.000000 0.000000
												}
											}
										}
									}
								}
								JOINT mixamorig:RightHandThumb1
								{
									OFFSET -3.788811 -2.166992 3.003087
									CHANNELS 6 Xposition Yposition Zposition Xrotation Yrotation Zrotation
									JOINT mixamorig:RightHandThumb2
									{
										OFFSET -3.675446 -2.122009 2.122012
										CHANNELS 6 Xposition Yposition Zposition Xrotation Yrotation Zrotation
										JOINT mixamorig:RightHandThumb3
										{
											OFFSET -3.394356 -1.959747 1.959793
											CHANNELS 6 Xposition Yposition Zposition Xrotation Yrotation Zrotation
											JOINT mixamorig:RightHandThumb4
											{
												OFFSET -2.679405 -1.546951 1.546920
												CHANNELS 6 Xposition Yposition Zposition Xrotation Yrotation Zrotation
												End Site
												{
													OFFSET -3.459076 0.000000 0.000000
												}
											}
										}
									}
								}
								JOINT mixamorig:RightHandIndex1
								{
									OFFSET -12.266617 -0.231674 2.822056
									CHANNELS 6 Xposition Yposition Zposition Xrotation Yrotation Zrotation
									JOINT mixamorig:RightHandIndex2
									{
										OFFSET -3.891968 0.000000 0.000037
										CHANNELS 6 Xposition Yposition Zposition Xrotation Yrotation Zrotation
										JOINT mixamorig:RightHandIndex3
										{
											OFFSET -3.415161 0.000000 -0.000009
											CHANNELS 6 Xposition Yposition Zposition Xrotation Yrotation Zrotation
											JOINT mixamorig:RightHandIndex4
											{
												OFFSET -3.077988 0.000000 -0.000009
												CHANNELS 6 Xposition Yposition Zposition Xrotation Yrotation Zrotation
												End Site
												{
													OFFSET -3.077988 0.000000 0.000000
												}
											}
										}
									}
								}
								JOINT mixamorig:RightHandRing1
								{
									OFFSET -12.147003 0.009903 -2.216631
									CHANNELS 6 Xposition Yposition Zposition Xrotation Yrotation Zrotation
									JOINT mixamorig:RightHandRing2
									{
										OFFSET -3.601196 0.000000 0.000034
										CHANNELS 6 Xposition Yposition Zposition Xrotation Yrotation Zrotation
										JOINT mixamorig:RightHandRing3
										{
											OFFSET -3.307312 0.000000 -0.000021
											CHANNELS 6 Xposition Yposition Zposition Xrotation Yrotation Zrotation
											JOINT mixamorig:RightHandRing4
											{
												OFFSET -3.660110 0.000000 0.000000
												CHANNELS 3 Xrotation Yrotation Zrotation
												End Site
												{
													OFFSET -3.660118 0.000000 0.000001
												}
											}
										}
									}
								}
								JOINT mixamorig:RightHandPinky1
								{
									OFFSET -10.908195 -0.226364 -4.725820
									CHANNELS 6 Xposition Yposition Zposition Xrotation Yrotation Zrotation
									JOINT mixamorig:RightHandPinky2
									{
										OFFSET -4.136650 0.000000 0.000026
										CHANNELS 6 Xposition Yposition Zposition Xrotation Yrotation Zrotation
										JOINT mixamorig:RightHandPinky3
										{
											OFFSET -2.594841 0.000000 -0.000037
											CHANNELS 6 Xposition Yposition Zposition Xrotation Yrotation Zrotation
											JOINT mixamorig:RightHandPinky4
											{
												OFFSET -2.923866 0.000000 0.000019
												CHANNELS 6 Xposition Yposition Zposition Xrotation Yrotation Zrotation
												End Site
												{
													OFFSET -2.923874 0.000000 0.000000
												}
											}
										}
									}
								}
							}
						}
					}
				}
			}
		}
	}
	JOINT mixamorig:RightUpLeg
	{
		OFFSET -9.124454 -6.656395 -0.055378
		CHANNELS 6 Xposition Yposition Zposition Xrotation Yrotation Zrotation
		JOINT mixamorig:RightLeg
		{
			OFFSET -0.244680 -40.595436 -0.514528
			CHANNELS 6 Xposition Yposition Zposition Xrotation Yrotation Zrotation
			JOINT mixamorig:RightFoot
			{
				OFFSET 0.244669 -42.047871 -2.060231
				CHANNELS 6 Xposition Yposition Zposition Xrotation Yrotation Zrotation
				JOINT mixamorig:RightToeBase
				{
					OFFSET -0.373360 -10.492195 12.640663
					CHANNELS 6 Xposition Yposition Zposition Xrotation Yrotation Zrotation
					JOINT mixamorig:RightToe_End
					{
						OFFSET 0.000000 0.000000 9.992521
						CHANNELS 6 Xposition Yposition Zposition Xrotation Yrotation Zrotation
						End Site
						{
							OFFSET 0.000000 0.000000 9.992521
						}
					}
				}
			}
		}
	}
	JOINT mixamorig:LeftUpLeg
	{
		OFFSET 9.124453 -6.656395 -0.055378
		CHANNELS 6 Xposition Yposition Zposition Xrotation Yrotation Zrotation
		JOINT mixamorig:LeftLeg
		{
			OFFSET 0.244680 -40.595406 -0.517041
			CHANNELS 6 Xposition Yposition Zposition Xrotation Yrotation Zrotation
			JOINT mixamorig:LeftFoot
			{
				OFFSET -0.244669 -42.047997 -2.057641
				CHANNELS 6 Xposition Yposition Zposition Xrotation Yrotation Zrotation
				JOINT mixamorig:LeftToeBase
				{
					OFFSET 0.373360 -10.492195 12.640664
					CHANNELS 6 Xposition Yposition Zposition Xrotation Yrotation Zrotation
					JOINT mixamorig:LeftToe_End
					{
						OFFSET 0.000000 0.000001 9.992521
						CHANNELS 6 Xposition Yposition Zposition Xrotation Yrotation Zrotation
						End Site
						{
							OFFSET 0.000000 0.000000 9.992521
						}
					}
				}
			}
		}
	}
}
MOTION
Frames: 3
Frame Time: 0.033333
-3.464714 98.032593 -3.118695 -0.906303 3.424009 2.280709 0.000001 9.923480 -1.227335 6.297168 -9.187777 -6.810327 -0.000140 11.645457 -1.422340 7.461033 -2.631965 0.403890 0.000090 13.360203 -1.626456 6.542099 -1.376625 3.142975 0.000025 15.032492 0.792906 -6.141777 -4.001557 -0.088779 0.000003 10.321858 3.142429 -13.308859 -25.888198 5.261068 0.000154 18.474670 6.636400 -0.000000 -0.000001 -0.000000 2.947915 7.681747 9.120731 -0.000000 -0.000001 -0.000000 -2.944481 7.681763 9.120497 -0.000000 -0.000001 -0.000000 6.105824 9.110418 0.705552 2.018996 -1.086665 -7.935305 12.655037 -0.265913 -2.600916 -2.262782 -12.890783 -61.189547 27.404688 0.000023 0.000007 -0.000004 -14.508264 -0.000009 27.614473 0.000019 0.000026 -32.469838 4.737738 -5.756394 12.775518 0.000010 0.000018 7.314320 8.378341 -83.899899 6.938842 5.745834 -100.766758 3.459782 -0.000004 -0.000025 1.300888 3.681247 -38.914156 3.680199 -0.000001 0.000032 0.000000 0.000000 -0.000000 3.788808 -2.166991 3.003090 47.414425 -36.283157 34.307958 3.675433 -2.122003 2.122016 35.105782 32.676520 -35.589783 3.394377 -1.959746 1.959783 2.288383 28.956976 9.844337 2.679403 -1.546952 1.546923 0.000000 0.000000 0.000001 12.266621 -0.231679 2.822056 0.068034 -6.393426 -82.681031 3.891983 -0.000002 0.000040 4.127830 5.590197 -72.864950 3.415154 0.000004 -0.000008 0.571504 2.525041 -25.502465 3.077979 0.000001 -0.000008 0.000000 0.000000 0.000000 12.146996 0.009890 -2.216630 -1.379883 7.585383 -84.881746 3.601190 -0.000018 0.000035 6.814559 5.767956 -99.528690 3.307310 -0.000010 -0.000023 4.931742 5.776101 -80.969625 0.000000 0.000000 -0.000000 10.908214 -0.226371 -4.725818 1.635782 7.099960 -71.644402 4.136648 -0.000023 0.000024 3.237988 5.235123 -63.452539 2.594836 -0.000001 -0.000036 1.183105 3.530672 -37.041615 2.923860 0.000000 0.000018 0.000000 0.000000 -0.000001 -6.105696 9.110497 0.705571 3.528874 -4.213168 0.706856 -12.655039 -0.266040 -2.600888 -11.763672 13.910551 78.843291 0.000012 13.157145 -0.000004 -27.614475 0.000064 0.000023 1.789556 -0.199670 0.407032 -12.775512 0.000015 0.000015 1.664994 -7.435664 20.391671 1.604304 -3.517274 49.025534 -3.459767 -0.000005 -0.000023 0.565985 -2.226316 28.524477 -3.680192 0.000000 0.000032 0.000000 -0.000001 0.000000 -3.788793 -2.166993 3.003088 7.540764 23.491505 -3.086021 -3.675438 -2.122003 2.122012 27.358061 -40.329139 10.212828 -3.394357 -1.959740 1.959792 2.733140 -39.216327 -0.082145 -2.679406 -1.546947 1.546922 0.000002 0.000000 0.000000 -12.266603 -0.231669 2.822056 12.338705 2.290460 19.887959 -3.891972 0.000002 0.000038 0.723950 -2.494883 32.358001 -3.415158 0.000006 -0.000009 0.019634 -0.427534 5.259103 -3.077978 -0.000002 -0.000010 0.000001 -0.000001 -0.000001 -12.147003 0.009899 -2.216631 2.040863 -7.497494 25.426783 -3.601190 -0.000004 0.000036 1.747785 -3.636710 51.325873 -3.307333 0.000025 -0.000022 1.083105 -2.986706 39.858293 -0.000001 0.000000 0.000002 -10.908184 -0.226364 -4.725819 -10.217394 -17.479229 19.928754 -4.136636 -0.000000 0.000021 1.641582 -3.549272 49.631310 -2.594851 0.000015 -0.000034 1.822361 -3.695048 52.492186 -2.923869 -0.000016 0.000017 -0.000001 0.000001 -0.000002 -9.124454 -6.656386 -0.055377 -10.202099 -9.871219 -6.667748 -0.244682 -40.595417 -0.514529 24.232213 -6.222398 -1.289679 0.244671 -42.047867 -2.060229 -11.926736 -2.980854 4.926077 -0.373359 -10.492195 12.640664 -1.422669 -0.000005 0.000001 -0.000004 0.000000 9.992523 -0.000000 -0.000002 -0.000000 9.124452 -6.656402 -0.055378 -9.410705 9.751669 7.186892 0.244679 -40.595413 -0.517042 15.670513 -6.170406 0.234723 -0.244669 -42.048000 -2.057642 -5.230146 0.069651 -5.579445 0.373359 -10.492192 12.640664 -0.852245 0.000001 -0.000000 0.000004 0.000001 9.992519 0.000000 0.000001 0.000000 
-3.614636 98.033783 -3.083758 -0.956813 3.468065 2.326870 0.000001 9.923480 -1.227335 6.332399 -9.299866 -6.790185 -0.000138 11.645436 -1.422340 7.556044 -2.748564 0.467136 0.000092 13.360194 -1.626457 6.636663 -1.475513 3.246644 0.000025 15.032508 0.792911 -6.175958 -4.091265 -0.104311 0.000002 10.321829 3.142431 -13.510454 -25.974045 5.089244 0.000154 18.474686 6.636399 0.000000 -0.000001 -0.000000 2.947915 7.681747 9.120731 0.000000 -0.000001 -0.000000 -2.944481 7.681763 9.120497 0.000000 -0.000001 -0.000000 6.105824 9.110435 0.705551 2.002529 -1.140936 -7.922382 12.655037 -0.265947 -2.600916 -2.475010 -13.051005 -61.311972 27.404680 0.000050 0.000008 0.000005 -14.290859 0.000005 27.614450 0.000033 0.000022 -32.737035 4.636323 -5.813918 12.775514 0.000023 0.000023 7.316575 8.377826 -83.921332 6.938771 5.745841 -100.766047 3.459771 0.000002 -0.000024 1.300612 3.680907 -38.909856 3.680205 0.000004 0.000032 -0.000000 0.000001 -0.000002 3.788800 -2.166992 3.003090 47.414425 -36.283157 34.307951 3.675442 -2.122012 2.122013 35.121342 32.687499 -35.594677 3.394349 -1.959754 1.959789 2.289051 28.966812 9.849418 2.679403 -1.546953 1.546922 -0.000001 -0.000002 -0.000002 12.266618 -0.231654 2.822058 0.067197 -6.394400 -82.674283 3.891961 -0.000001 0.000038 4.120532 5.587951 -72.789995 3.415151 -0.000001 -0.000009 0.571627 2.525302 -25.505299 3.077987 -0.000001 -0.000009 0.000000 0.000000 0.000000 12.147007 0.009897 -2.216630 -1.384032 7.582659 -84.861883 3.601193 0.000004 0.000037 6.817400 5.767478 -99.556953 3.307331 -0.000010 -0.000021 4.929870 5.775807 -80.951026 0.000000 -0.000000 0.000000 10.908195 -0.226372 -4.725819 1.630848 7.097954 -71.636253 4.136652 -0.000002 0.000026 3.238102 5.235182 -63.453803 2.594838 0.000000 -0.000035 1.182537 3.529924 -37.032418 2.923874 0.000002 0.000019 0.000000 0.000000 -0.000000 -6.105697 9.110500 0.705570 3.560245 -4.216445 0.620073 -12.655034 -0.266021 -2.600893 -11.344970 13.542367 78.758037 0.000014 13.438039 0.000012 -27.614489 0.000056 0.000022 1.638854 -0.558397 0.393663 -12.775544 0.000002 0.000016 1.657298 -7.433005 20.296086 1.600898 -3.514319 48.969991 -3.459758 -0.000003 -0.000024 0.562788 -2.220423 28.442009 -3.680191 -0.000015 0.000031 -0.000000 -0.000001 -0.000000 -3.788819 -2.166990 3.003088 7.540767 23.491508 -3.086020 -3.675436 -2.122008 2.122015 27.312296 -40.281310 10.166349 -3.394343 -1.959744 1.959787 2.720721 -39.211173 -0.095192 -2.679396 -1.546947 1.546913 0.000001 -0.000002 -0.000001 -12.266626 -0.231673 2.822055 12.335724 2.302967 19.776391 -3.891973 -0.000000 0.000039 0.718045 -2.485556 32.222268 -3.415152 -0.000005 -0.000009 0.018746 -0.417771 5.138620 -3.077988 -0.000008 -0.000007 0.000001 0.000000 0.000000 -12.147011 0.009888 -2.216631 2.042710 -7.504723 25.403077 -3.601199 -0.000002 0.000037 1.747634 -3.636591 51.323489 -3.307322 -0.000002 -0.000023 1.082858 -2.986405 39.853515 -0.000000 -0.000000 -0.000000 -10.908197 -0.226367 -4.725821 -10.228268 -17.470659 19.877560 -4.136662 0.000000 0.000028 1.642078 -3.549689 49.639308 -2.594841 -0.000002 -0.000035 1.824125 -3.696398 52.519534 -2.923861 0.000016 0.000023 0.000000 -0.000000 0.000001 -9.124454 -6.656390 -0.055377 -10.137736 -9.900137 -6.624858 -0.244680 -40.595432 -0.514526 24.283841 -6.230989 -1.263577 0.244670 -42.047867 -2.060229 -12.026374 -3.001270 4.800469 -0.373359 -10.492193 12.640665 -1.406747 -0.000008 -0.000000 0.000002 0.000000 9.992521 -0.000000 0.000002 0.000000 9.124453 -6.656393 -0.055378 -9.226899 9.740792 7.223750 0.244679 -40.595398 -0.517042 15.409566 -6.196637 0.237243 -0.244669 -42.048004 -2.057642 -5.109398 0.066865 -5.690199 0.373361 -10.492193 12.640663 -0.854322 0.000008 -0.000000 0.000001 0.000001 9.992523 0.000000 0.000001 0.000000 
-3.752571 98.035309 -3.057170 -0.945089 3.492377 2.355376 0.000000 9.923465 -1.227335 6.342535 -9.383568 -6.756276 -0.000139 11.645435 -1.422342 7.642786 -2.863449 0.527818 0.000090 13.360196 -1.626455 6.724201 -1.574632 3.343620 0.000026 15.032486 0.792903 -6.178984 -4.183604 -0.105893 0.000003 10.321843 3.142432 -13.574444 -26.057877 4.995695 0.000153 18.474686 6.636400 -0.000000 -0.000004 -0.000000 2.947915 7.681763 9.120732 -0.000000 -0.000004 -0.000000 -2.944483 7.681747 9.120497 -0.000000 -0.000004 -0.000000 6.105824 9.110433 0.705544 1.988158 -1.191576 -7.907457 12.655044 -0.265928 -2.600917 -2.530013 -13.152444 -61.399227 27.404678 0.000038 0.000004 -0.000004 -14.334614 -0.000030 27.614458 0.000025 0.000027 -33.038356 4.651433 -5.794737 12.775517 0.000004 0.000018 7.319046 8.377254 -83.944869 6.938817 5.745833 -100.766525 3.459771 -0.000004 -0.000025 1.299778 3.679877 -38.896889 3.680198 0.000000 0.000032 0.000000 -0.000000 -0.000003 3.788808 -2.166993 3.003086 47.414425 -36.283160 34.307955 3.675441 -2.122007 2.122020 35.127748 32.690863 -35.596132 3.394354 -1.959738 1.959787 2.289584 28.983358 9.857726 2.679407 -1.546952 1.546928 0.000001 0.000002 0.000003 12.266599 -0.231678 2.822058 0.068403 -6.396869 -82.653157 3.891967 0.000006 0.000039 4.120515 5.587944 -72.789859 3.415173 -0.000005 -0.000008 0.571772 2.525600 -25.508528 3.077987 0.000000 -0.000007 -0.000000 0.000000 0.000000 12.147003 0.009885 -2.216631 -1.386600 7.581509 -84.854070 3.601185 -0.000004 0.000031 6.815057 5.767874 -99.533622 3.307305 0.000002 -0.000023 4.929442 5.775740 -80.946744 0.000000 0.000000 0.000001 10.908196 -0.226365 -4.725818 1.627527 7.096730 -71.633433 4.136669 -0.000006 0.000026 3.238165 5.235212 -63.454493 2.594831 0.000002 -0.000037 1.182816 3.530292 -37.036933 2.923867 -0.000000 0.000019 -0.000000 0.000000 -0.000000 -6.105695 9.110495 0.705563 3.594650 -4.241848 0.511181 -12.655036 -0.266037 -2.600890 -11.109682 13.251084 78.758816 0.000014 13.451168 -0.000010 -27.614487 0.000061 0.000023 1.423572 -0.744574 0.356382 -12.775539 0.000002 0.000019 1.657433 -7.433532 20.295231 1.598320 -3.512083 48.928005 -3.459765 0.000001 -0.000023 0.560470 -2.216148 28.382151 -3.680191 -0.000015 0.000034 -0.000002 -0.000000 -0.000000 -3.788819 -2.167006 3.003087 7.540765 23.491507 -3.086019 -3.675448 -2.122007 2.122008 27.246473 -40.211690 10.098399 -3.394373 -1.959749 1.959793 2.706627 -39.209681 -0.111687 -2.679406 -1.546952 1.546924 -0.000001 0.000000 0.000000 -12.266628 -0.231669 2.822057 12.329412 2.316388 19.773232 -3.891964 -0.000002 0.000038 0.713358 -2.478110 32.114033 -3.415153 0.000004 -0.000008 0.018213 -0.411763 5.064535 -3.077995 -0.000003 -0.000008 0.000000 -0.000000 -0.000000 -12.147011 0.009883 -2.216630 2.042855 -7.502312 25.422041 -3.601199 -0.000003 0.000035 1.750538 -3.638909 51.369279 -3.307339 0.000017 -0.000021 1.083611 -2.987307 39.867975 -0.000000 -0.000001 0.000001 -10.908203 -0.226374 -4.725819 -10.221420 -17.476733 19.913594 -4.136627 0.000004 0.000026 1.643787 -3.551148 49.666960 -2.594844 -0.000015 -0.000037 1.832833 -3.703042 52.654461 -2.923868 0.000000 0.000021 -0.000001 -0.000000 0.000001 -9.124454 -6.656402 -0.055378 -10.141384 -9.917513 -6.567303 -0.244680 -40.595425 -0.514527 24.322630 -6.236240 -1.248872 0.244669 -42.047874 -2.060231 -12.102117 -3.018536 4.688058 -0.373360 -10.492193 12.640664 -1.390638 -0.000013 -0.000000 0.000002 0.000000 9.992521 0.000000 -0.000001 0.000000 9.124453 -6.656413 -0.055379 -9.117892 9.730661 7.262274 0.244680 -40.595398 -0.517041 15.170936 -6.190102 0.239557 -0.244668 -42.048000 -2.057642 -5.010094 0.063212 -5.775073 0.373362 -10.492193 12.640665 -0.855599 -0.000000 -0.000001 0.000000 0.000001 9.992523 -0.000000 0.000001 0.000000 
